<svg width="254" height="290" viewBox="0 0 276 312" fill="none" xmlns="http://www.w3.org/2000/svg" xmlns:xlink="http://www.w3.org/1999/xlink">
<path fill-rule="evenodd" clip-rule="evenodd" d="M144.712 0.0898829C184.583 1.3437 223.752 17.4917 249.335 48.0744C273.14 76.5306 270.582 115.566 272.301 152.613C274.154 192.564 284.52 236.094 259.508 267.317C232.839 300.608 187.363 313.364 144.712 311.886C103.435 310.456 65.3657 290.189 37.611 259.628C11.1828 230.528 0.842295 191.901 0.0646696 152.613C-0.731998 112.363 5.5762 70.5025 33.2892 41.2805C61.6061 11.4217 103.564 -1.20407 144.712 0.0898829Z" fill="#C4C4C4"/>
<path fill-rule="evenodd" clip-rule="evenodd" d="M144.712 0.0898829C184.583 1.3437 223.752 17.4917 249.335 48.0744C273.14 76.5306 270.582 115.566 272.301 152.613C274.154 192.564 284.52 236.094 259.508 267.317C232.839 300.608 187.363 313.364 144.712 311.886C103.435 310.456 65.3657 290.189 37.611 259.628C11.1828 230.528 0.842295 191.901 0.0646696 152.613C-0.731998 112.363 5.5762 70.5025 33.2892 41.2805C61.6061 11.4217 103.564 -1.20407 144.712 0.0898829Z" fill="black"/>
</svg>
