<svg width="334" height="262" viewBox="0 0 334 262" fill="none" xmlns="http://www.w3.org/2000/svg" xmlns:xlink="http://www.w3.org/1999/xlink">
<path fill-rule="evenodd" clip-rule="evenodd" d="M263.671 5.31108C299.269 21.8768 319.498 59.8949 328.78 98.0463C337.855 135.35 334.956 176.266 312.907 207.694C292.234 237.162 254.719 245.239 219.693 253.541C186.04 261.518 152.189 265.803 119.887 253.447C80.7964 238.494 42.5795 216.871 24.7897 178.987C3.84424 134.382 -13.0727 75.0029 18.2155 36.9334C49.0324 -0.562515 108.871 24.3138 157.008 18.1123C193.929 13.3557 229.92 -10.3948 263.671 5.31108Z" fill="#C4C4C4"/>
<path fill-rule="evenodd" clip-rule="evenodd" d="M263.671 5.31108C299.269 21.8768 319.498 59.8949 328.78 98.0463C337.855 135.35 334.956 176.266 312.907 207.694C292.234 237.162 254.719 245.239 219.693 253.541C186.04 261.518 152.189 265.803 119.887 253.447C80.7964 238.494 42.5795 216.871 24.7897 178.987C3.84424 134.382 -13.0727 75.0029 18.2155 36.9334C49.0324 -0.562515 108.871 24.3138 157.008 18.1123C193.929 13.3557 229.92 -10.3948 263.671 5.31108Z" fill="black"/>
</svg>
